<svg width="187" height="141" viewBox="0 0 187 141" fill="none" xmlns="http://www.w3.org/2000/svg">
<path d="M52.8275 74.801H60.588C68.1381 74.801 72.9183 79.2189 72.9767 85.3197C73.0702 91.5959 67.9862 96.0606 60.2841 96.0606C53.295 96.0138 48.1642 92.2621 47.8019 87.2248H35.0625C35.4131 97.9072 44.3073 106.953 60.2257 106.953C74.7182 106.953 86.9316 99.2396 86.7797 85.9392C86.6278 74.801 78.0491 69.8104 71.6794 69.2027V68.4781C76.8219 67.6599 84.8279 62.3188 84.6292 52.4078C84.4773 41.8189 75.2792 34.0584 60.6348 34.1168C45.3241 34.1753 36.7572 42.6954 36.3949 53.6349H49.2862C49.5433 49.0651 53.7625 44.8576 60.2257 44.8576C66.4434 44.8576 71.0717 48.7145 71.0717 54.3596C71.1184 59.9579 66.5954 64.1186 60.2257 64.1186H52.8392L52.8275 74.801ZM94.9726 35.4492V105.563H120.557C141.711 105.563 151.938 92.6244 151.938 70.3247C151.938 48.1886 141.875 35.4492 120.557 35.4492H94.9726ZM108.846 46.751H118.71C131.706 46.751 137.655 54.7686 137.655 70.5935C137.655 86.4067 131.753 94.2022 118.71 94.2022H108.846V46.751Z" fill="#FFFBF5"/>
<path d="M163.625 12.0625C166.725 12.0625 169.697 13.2939 171.889 15.4857C174.081 17.6775 175.312 20.6503 175.312 23.75V117.25C175.312 120.35 174.081 123.322 171.889 125.514C169.697 127.706 166.725 128.938 163.625 128.938H23.375C20.2753 128.938 17.3025 127.706 15.1107 125.514C12.9189 123.322 11.6875 120.35 11.6875 117.25V23.75C11.6875 20.6503 12.9189 17.6775 15.1107 15.4857C17.3025 13.2939 20.2753 12.0625 23.375 12.0625H163.625ZM23.375 0.375C17.1756 0.375 11.23 2.83772 6.84638 7.22138C2.46272 11.605 0 17.5506 0 23.75L0 117.25C0 123.449 2.46272 129.395 6.84638 133.779C11.23 138.162 17.1756 140.625 23.375 140.625H163.625C169.824 140.625 175.77 138.162 180.154 133.779C184.537 129.395 187 123.449 187 117.25V23.75C187 17.5506 184.537 11.605 180.154 7.22138C175.77 2.83772 169.824 0.375 163.625 0.375H23.375Z" fill="#FFFBF5"/>
</svg>
