<svg width="101" height="84" viewBox="0 0 101 84" fill="none" xmlns="http://www.w3.org/2000/svg">
<mask id="mask0_3_33" style="mask-type:luminance" maskUnits="userSpaceOnUse" x="0" y="0" width="101" height="84">
<path d="M48.0606 79.5758H9.27273C7.34388 79.5758 5.49403 78.8095 4.13013 77.4456C2.76623 76.0817 2 74.2319 2 72.303V9.27273C2 7.34388 2.76623 5.49403 4.13013 4.13013C5.49403 2.76623 7.34388 2 9.27273 2H91.697C93.6258 2 95.4757 2.76623 96.8396 4.13013C98.2035 5.49403 98.9697 7.34388 98.9697 9.27273V45.3503" stroke="white" stroke-width="4" stroke-linecap="round" stroke-linejoin="round"/>
<path d="M2 9.27273C2 7.34388 2.76623 5.49403 4.13013 4.13013C5.49403 2.76623 7.34388 2 9.27273 2H91.697C93.6258 2 95.4757 2.76623 96.8396 4.13013C98.2035 5.49403 98.9697 7.34388 98.9697 9.27273V31.0909H2V9.27273Z" fill="white" stroke="white" stroke-width="4"/>
<path d="M74.7273 62.6061L65.0303 72.303L74.7273 82M89.2727 62.6061L98.9697 72.303L89.2727 82" stroke="white" stroke-width="4" stroke-linecap="round" stroke-linejoin="round"/>
<path d="M11.697 16.5455C11.697 13.8677 13.8677 11.697 16.5455 11.697C19.2232 11.697 21.394 13.8677 21.394 16.5455C21.394 19.2232 19.2232 21.3939 16.5455 21.3939C13.8677 21.3939 11.697 19.2232 11.697 16.5455Z" fill="black"/>
<path d="M26.2424 16.5455C26.2424 13.8677 28.4132 11.697 31.0909 11.697C33.7687 11.697 35.9394 13.8677 35.9394 16.5455C35.9394 19.2232 33.7687 21.3939 31.0909 21.3939C28.4132 21.3939 26.2424 19.2232 26.2424 16.5455Z" fill="black"/>
</mask>
<g mask="url(#mask0_3_33)">
<path d="M-7.69696 -17.3939H108.667V98.9697H-7.69696V-17.3939Z" fill="#FFFBF5"/>
</g>
</svg>
