<svg width="91" height="91" viewBox="0 0 91 91" fill="none" xmlns="http://www.w3.org/2000/svg">
<path d="M59.125 0.0833282C46.8171 0.0833282 36.1896 7.0775 30.8758 17.2508C25.045 20.2887 20.2887 25.045 17.2508 30.8758C12.0787 33.5633 7.74308 37.6183 4.71604 42.5993C1.689 47.5803 0.0866036 53.2963 0.0833282 59.125C0.0833282 76.7012 14.2987 90.9167 31.875 90.9167C44.1829 90.9167 54.8104 83.9225 60.1242 73.7492C65.955 70.7113 70.7113 65.955 73.7492 60.1242C78.9213 57.4367 83.2569 53.3817 86.284 48.4007C89.311 43.4197 90.9134 37.7037 90.9167 31.875C90.9167 14.2987 76.7012 0.0833282 59.125 0.0833282ZM31.875 81.8333C27.6592 81.83 23.5275 80.6536 19.9422 78.4357C16.3569 76.2179 13.4594 73.0462 11.5741 69.2755C9.68871 65.5047 8.88979 61.2837 9.26671 57.0848C9.64364 52.8859 11.1815 48.8747 13.7083 45.5C13.7083 63.0762 27.9237 77.2917 45.5 77.2917C41.685 80.1529 36.9617 81.8333 31.875 81.8333ZM45.5 68.2083C41.2842 68.205 37.1525 67.0286 33.5672 64.8107C29.9819 62.5929 27.0844 59.4212 25.1991 55.6505C23.3137 51.8797 22.5148 47.6587 22.8917 43.4598C23.2686 39.2609 24.8065 35.2497 27.3333 31.875C27.3333 49.4058 41.5487 63.6212 59.125 63.6667C55.31 66.5279 50.5867 68.2083 45.5 68.2083ZM66.8458 53.2208C64.4388 54.0837 61.85 54.5833 59.125 54.5833C46.59 54.5833 36.4167 44.41 36.4167 31.875C36.4167 29.15 36.9162 26.5612 37.7792 24.1542C40.1862 23.2912 42.775 22.7917 45.5 22.7917C58.035 22.7917 68.2083 32.965 68.2083 45.5C68.2083 48.225 67.7088 50.8137 66.8458 53.2208ZM77.2917 45.5C77.2917 27.9692 63.0762 13.7537 45.5 13.7083C49.8751 10.4459 55.2785 8.86754 60.7218 9.26197C66.1652 9.65639 71.2846 11.9972 75.1437 15.8563C79.0028 19.7154 81.3436 24.8348 81.738 30.2782C82.1325 35.7215 80.5541 41.1249 77.2917 45.5Z" fill="#FFFBF5"/>
</svg>
