<svg width="103" height="103" viewBox="0 0 103 103" fill="none" xmlns="http://www.w3.org/2000/svg">
<path fill-rule="evenodd" clip-rule="evenodd" d="M0.625 51.5C0.625 23.4031 23.4031 0.625 51.5 0.625C79.5969 0.625 102.375 23.4031 102.375 51.5C102.375 79.5969 79.5969 102.375 51.5 102.375C23.4031 102.375 0.625 79.5969 0.625 51.5ZM64.45 39.475C63.714 38.4937 62.6184 37.845 61.4041 37.6715C60.1898 37.498 58.9563 37.814 57.975 38.55C56.9937 39.286 56.345 40.3816 56.1715 41.5959C55.998 42.8102 56.314 44.0437 57.05 45.025L61.9062 51.5L57.05 57.975C56.314 58.9563 55.998 60.1898 56.1715 61.4041C56.345 62.6184 56.9937 63.714 57.975 64.45C58.9563 65.186 60.1898 65.502 61.4041 65.3285C62.6184 65.155 63.714 64.5063 64.45 63.525L67.6875 59.2099L70.925 63.525C71.661 64.5063 72.7566 65.155 73.9709 65.3285C74.5722 65.4144 75.1845 65.381 75.7728 65.2303C76.3612 65.0796 76.9141 64.8144 77.4 64.45C77.8859 64.0856 78.2952 63.629 78.6047 63.1064C78.9141 62.5838 79.1176 62.0053 79.2035 61.4041C79.2894 60.8028 79.256 60.1905 79.1053 59.6022C78.9546 59.0138 78.6894 58.4609 78.325 57.975L73.4688 51.5L78.325 45.025C79.061 44.0437 79.377 42.8102 79.2035 41.5959C79.03 40.3816 78.3813 39.286 77.4 38.55C76.9141 38.1856 76.3612 37.9204 75.7728 37.7697C75.1845 37.619 74.5722 37.5856 73.9709 37.6715C72.7566 37.845 71.661 38.4937 70.925 39.475L67.6875 43.7901L64.45 39.475ZM33 42.25C33 41.0234 32.5127 39.847 31.6454 38.9796C30.778 38.1123 29.6016 37.625 28.375 37.625C27.1484 37.625 25.972 38.1123 25.1046 38.9796C24.2373 39.847 23.75 41.0234 23.75 42.25V51.5C23.75 53.7801 24.3975 57.1009 26.4695 59.9822C28.7172 63.1087 32.4172 65.375 37.625 65.375C42.8328 65.375 46.5327 63.0995 48.7805 59.9822C50.8525 57.1009 51.5 53.7847 51.5 51.5V42.25C51.5 41.0234 51.0127 39.847 50.1454 38.9796C49.278 38.1123 48.1016 37.625 46.875 37.625C45.6484 37.625 44.472 38.1123 43.6046 38.9796C42.7373 39.847 42.25 41.0234 42.25 42.25V51.5C42.25 52.3001 41.9725 53.609 41.2695 54.5803C40.7423 55.3156 39.8173 56.125 37.625 56.125C35.4327 56.125 34.5077 55.3156 33.9805 54.5803C33.3648 53.6689 33.0245 52.5996 33 51.5V42.25Z" fill="#FFFBF5"/>
</svg>
